# xmcd
#
# Track frame offsets:
#  183
#  18013
#  38330
#  54990
#
# Disc length: 954 seconds
#
# Revision: 0
# Processed by: cddbd v1.5.1PL0 Copyright (c) Steve Scherf et al.
# Submitted via: Collectorz.com Music Collector 6.9
#
DISCID=1c03b804
DTITLE=tom pacheco - Sweet Lucille
DYEAR=1991
DGENRE=
TTITLE0=Sweet Lucille
TTITLE1=Strange Gods
TTITLE2=Midnite Waters Of The Rio Grande
TTITLE3=Jesus In A Leather Jacket
EXTD=
EXTT0=
EXTT1=
EXTT2=
EXTT3=
PLAYORDER=
